<mxfile host="65bd71144e">
    <diagram name="Seite-1" id="qJ4vABtUxzLaA0-g0SjJ">
        <mxGraphModel dx="982" dy="827" grid="1" gridSize="10" guides="1" tooltips="1" connect="1" arrows="1" fold="1" page="1" pageScale="1" pageWidth="827" pageHeight="1169" math="0" shadow="0">
            <root>
                <mxCell id="0"/>
                <mxCell id="1" parent="0"/>
                <mxCell id="L0xOBzSdBNHgVUkidRTV-2" value="ShadowEnv" style="rounded=0;whiteSpace=wrap;html=1;fontStyle=1;fontSize=18;" parent="1" vertex="1">
                    <mxGeometry x="120" y="100" width="600" height="60" as="geometry"/>
                </mxCell>
                <mxCell id="L0xOBzSdBNHgVUkidRTV-17" style="edgeStyle=orthogonalEdgeStyle;rounded=0;orthogonalLoop=1;jettySize=auto;html=1;entryX=0.5;entryY=1;entryDx=0;entryDy=0;endArrow=none;endFill=0;" parent="1" source="L0xOBzSdBNHgVUkidRTV-5" target="L0xOBzSdBNHgVUkidRTV-2" edge="1">
                    <mxGeometry relative="1" as="geometry"/>
                </mxCell>
                <mxCell id="L0xOBzSdBNHgVUkidRTV-5" value="&lt;i&gt;view&lt;/i&gt;" style="swimlane;whiteSpace=wrap;html=1;" parent="1" vertex="1">
                    <mxGeometry x="120" y="200" width="280" height="230" as="geometry"/>
                </mxCell>
                <mxCell id="L0xOBzSdBNHgVUkidRTV-7" value="ComponentContext" style="rounded=0;whiteSpace=wrap;html=1;" parent="L0xOBzSdBNHgVUkidRTV-5" vertex="1">
                    <mxGeometry x="80" y="40" width="120" height="60" as="geometry"/>
                </mxCell>
                <mxCell id="L0xOBzSdBNHgVUkidRTV-10" style="edgeStyle=orthogonalEdgeStyle;rounded=0;orthogonalLoop=1;jettySize=auto;html=1;entryX=0.5;entryY=1;entryDx=0;entryDy=0;" parent="L0xOBzSdBNHgVUkidRTV-5" source="L0xOBzSdBNHgVUkidRTV-8" target="L0xOBzSdBNHgVUkidRTV-7" edge="1">
                    <mxGeometry relative="1" as="geometry"/>
                </mxCell>
                <mxCell id="L0xOBzSdBNHgVUkidRTV-8" value="&lt;i&gt;view components&lt;/i&gt;" style="rounded=0;whiteSpace=wrap;html=1;" parent="L0xOBzSdBNHgVUkidRTV-5" vertex="1">
                    <mxGeometry x="80" y="140" width="120" height="60" as="geometry"/>
                </mxCell>
                <mxCell id="L0xOBzSdBNHgVUkidRTV-18" style="edgeStyle=orthogonalEdgeStyle;rounded=0;orthogonalLoop=1;jettySize=auto;html=1;entryX=0.5;entryY=1;entryDx=0;entryDy=0;strokeColor=default;endArrow=none;endFill=0;" parent="1" source="L0xOBzSdBNHgVUkidRTV-6" target="L0xOBzSdBNHgVUkidRTV-2" edge="1">
                    <mxGeometry relative="1" as="geometry"/>
                </mxCell>
                <mxCell id="L0xOBzSdBNHgVUkidRTV-6" value="&lt;i&gt;shadow object&amp;nbsp;enviroment&lt;/i&gt;" style="swimlane;whiteSpace=wrap;html=1;" parent="1" vertex="1">
                    <mxGeometry x="440" y="200" width="280" height="290" as="geometry"/>
                </mxCell>
                <mxCell id="L0xOBzSdBNHgVUkidRTV-11" value="MessageRouter" style="rounded=0;whiteSpace=wrap;html=1;" parent="L0xOBzSdBNHgVUkidRTV-6" vertex="1">
                    <mxGeometry x="20" y="40" width="240" height="60" as="geometry"/>
                </mxCell>
                <mxCell id="L0xOBzSdBNHgVUkidRTV-12" value="Kernel" style="rounded=0;whiteSpace=wrap;html=1;" parent="L0xOBzSdBNHgVUkidRTV-6" vertex="1">
                    <mxGeometry x="20" y="100" width="120" height="60" as="geometry"/>
                </mxCell>
                <mxCell id="L0xOBzSdBNHgVUkidRTV-13" value="Registry" style="rounded=0;whiteSpace=wrap;html=1;" parent="L0xOBzSdBNHgVUkidRTV-6" vertex="1">
                    <mxGeometry x="140" y="100" width="120" height="60" as="geometry"/>
                </mxCell>
                <mxCell id="L0xOBzSdBNHgVUkidRTV-16" style="edgeStyle=orthogonalEdgeStyle;rounded=0;orthogonalLoop=1;jettySize=auto;html=1;entryX=0.5;entryY=1;entryDx=0;entryDy=0;" parent="L0xOBzSdBNHgVUkidRTV-6" source="L0xOBzSdBNHgVUkidRTV-14" target="L0xOBzSdBNHgVUkidRTV-12" edge="1">
                    <mxGeometry relative="1" as="geometry"/>
                </mxCell>
                <mxCell id="L0xOBzSdBNHgVUkidRTV-14" value="shadow objects" style="rounded=0;whiteSpace=wrap;html=1;fontStyle=2" parent="L0xOBzSdBNHgVUkidRTV-6" vertex="1">
                    <mxGeometry x="20" y="200" width="120" height="60" as="geometry"/>
                </mxCell>
            </root>
        </mxGraphModel>
    </diagram>
</mxfile>
